<?xml version="1.0" encoding="UTF-8"?>
<svg id="Camada_2" data-name="Camada 2" xmlns="http://www.w3.org/2000/svg" viewBox="0 0 373.46 143.07">
  <defs>
    <style>
      .cls-1 {
        fill: #fff;
        stroke-width: 0px;
      }
    </style>
  </defs>
  <g id="Camada_1-2" data-name="Camada 1">
    <g>
      <path class="cls-1" d="m164.7,103.42h-56.58V0h17.03v96.12h39.54v7.3Z"/>
      <path class="cls-1" d="m264.7,103.42h-21.44l-39.69-50.8v50.8h-17.03V0h17.03v45.02L252.53,0h9.43l-45.78,42.58,48.51,60.83Z"/>
      <g>
        <path class="cls-1" d="m78.65,138.28c0,1.68-.46,2.9-1.37,3.66-.91.76-2.33,1.13-4.27,1.13-.47,0-.94-.02-1.41-.06-.48-.04-.92-.09-1.34-.15-.42-.06-.8-.13-1.13-.2-.34-.07-.58-.14-.74-.22l.14-1.01c.2.08.46.15.78.21s.67.12,1.04.19.76.11,1.17.14c.41.03.79.05,1.15.05,1.32,0,2.3-.22,2.92-.65.62-.44.94-1.21.94-2.31,0-.92-.3-1.63-.91-2.13-.61-.5-1.55-.86-2.83-1.08-.78-.14-1.46-.32-2.05-.54-.58-.22-1.07-.51-1.45-.88-.38-.37-.67-.81-.87-1.34-.19-.53-.29-1.17-.29-1.92,0-1.53.48-2.67,1.45-3.43.97-.76,2.31-1.13,4.02-1.13.45,0,.91.02,1.38.06.47.04.9.09,1.31.15.41.06.76.13,1.06.2.3.07.53.14.67.2l-.14,1.03c-.17-.06-.4-.12-.68-.19-.28-.06-.6-.12-.96-.19-.36-.06-.74-.11-1.13-.15-.4-.04-.78-.06-1.16-.06-1.34,0-2.3.24-2.88.71-.58.48-.87,1.2-.87,2.19,0,.86.3,1.5.91,1.92.61.42,1.56.75,2.85.98.78.14,1.46.32,2.05.54.58.22,1.07.51,1.46.89.39.37.68.83.88,1.38.19.55.29,1.22.29,2.01Z"/>
        <path class="cls-1" d="m110.52,142.44c-.55.2-1.17.36-1.87.47s-1.52.16-2.45.16c-1.25,0-2.27-.18-3.07-.54s-1.44-.89-1.92-1.59c-.48-.7-.81-1.57-.99-2.62-.19-1.04-.28-2.26-.28-3.65,0-2.68.53-4.7,1.58-6.04,1.05-1.35,2.74-2.02,5.06-2.02.89,0,1.68.07,2.37.21.69.14,1.17.27,1.44.4l-.14,1.05c-.31-.12-.77-.25-1.38-.39-.61-.13-1.25-.2-1.92-.2-.97,0-1.73.2-2.29.6s-.99.92-1.3,1.58-.5,1.4-.58,2.23c-.09.83-.13,1.69-.13,2.56,0,.97.04,1.89.12,2.77.08.88.26,1.66.55,2.34s.72,1.22,1.29,1.63,1.34.61,2.33.61c.69,0,1.34-.07,1.98-.2.63-.13,1.13-.27,1.48-.41l.14,1.05Z"/>
        <path class="cls-1" d="m145.26,134.68c0,1.39-.11,2.61-.34,3.66-.23,1.05-.6,1.93-1.13,2.63-.53.7-1.23,1.23-2.1,1.58-.87.35-1.96.53-3.25.53s-2.35-.18-3.2-.54-1.54-.89-2.06-1.59c-.51-.7-.88-1.57-1.1-2.62-.22-1.04-.33-2.26-.33-3.65s.12-2.49.36-3.51c.24-1.01.63-1.85,1.17-2.52.54-.67,1.24-1.18,2.1-1.52.87-.34,1.93-.51,3.19-.51s2.32.17,3.17.51c.85.34,1.53.85,2.06,1.52.52.67.9,1.51,1.12,2.52.23,1.01.34,2.18.34,3.51Zm-2.71,0c0-.89-.04-1.75-.12-2.59s-.25-1.59-.53-2.24c-.27-.65-.68-1.18-1.22-1.58s-1.27-.6-2.19-.6-1.65.2-2.19.6-.94.92-1.22,1.58c-.27.65-.45,1.4-.53,2.24-.08.84-.12,1.71-.12,2.59,0,.94.03,1.85.1,2.74.07.89.24,1.67.51,2.35.27.68.68,1.22,1.22,1.64.54.41,1.27.62,2.21.62s1.67-.21,2.21-.62c.54-.41.94-.96,1.22-1.64.27-.68.44-1.46.51-2.35.07-.89.11-1.8.11-2.74Z"/>
        <path class="cls-1" d="m178.29,137.04c0,.94-.09,1.77-.26,2.51-.17.74-.46,1.37-.87,1.89-.41.52-.95.92-1.65,1.2s-1.55.42-2.58.42c-1.11,0-2.03-.14-2.76-.42s-1.32-.68-1.75-1.19c-.44-.51-.75-1.15-.94-1.89-.19-.75-.28-1.59-.28-2.53v-10.15h2.62v10.15c0,1.73.28,2.99.83,3.78.55.79,1.5,1.18,2.84,1.18s2.28-.39,2.83-1.18c.55-.79.82-2.05.82-3.78v-10.15h1.15v10.15Z"/>
        <path class="cls-1" d="m211.09,128.02h-4.37v14.78h-2.62v-14.78h-4.4v-1.12h11.39v1.12Z"/>
        <path class="cls-1" d="m235.27,142.79h-2.62v-15.9h2.62v15.9Z"/>
        <path class="cls-1" d="m269.4,142.79h-1.1l-9.07-12.58v12.58h-1.15v-15.9h1.92l8.25,11.55v-11.55h1.15v15.9Z"/>
        <path class="cls-1" d="m303.42,142.09c-.22.12-.51.25-.89.36-.37.12-.8.22-1.29.32-.48.09-1.01.17-1.57.22-.56.05-1.12.08-1.68.08-1.28,0-2.34-.18-3.18-.54s-1.51-.89-2-1.59c-.49-.7-.83-1.57-1.03-2.62-.19-1.04-.29-2.26-.29-3.65,0-2.67.57-4.68,1.71-6.03,1.14-1.36,2.93-2.03,5.38-2.03,1.06,0,1.96.07,2.71.22.75.15,1.22.28,1.43.39l-.14,1.03c-.09-.05-.25-.1-.48-.16-.23-.06-.51-.12-.84-.19-.34-.06-.72-.12-1.15-.16s-.88-.07-1.37-.07c-1.03,0-1.84.2-2.44.6-.6.4-1.06.92-1.37,1.58-.31.65-.51,1.4-.6,2.24-.09.84-.13,1.71-.13,2.59,0,.95.03,1.87.11,2.76.07.89.24,1.68.5,2.36.26.69.66,1.24,1.18,1.65.52.41,1.23.62,2.14.62.67,0,1.25-.05,1.75-.15.5-.1.86-.21,1.08-.32v-6.17h-2.57v-1.01h5.03v7.67Z"/>
      </g>
      <polygon class="cls-1" points="72.39 103.42 90.79 103.42 52.47 0 38.33 0 0 103.42 7.6 103.42 40.15 13.84 72.39 103.42"/>
      <polygon class="cls-1" points="355.05 103.42 373.46 103.42 335.13 0 320.99 0 282.66 103.42 290.27 103.42 322.81 13.84 355.05 103.42"/>
    </g>
  </g>
</svg>