<?xml version="1.0" encoding="utf-8"?>
<!-- Generator: Adobe Illustrator 28.0.0, SVG Export Plug-In . SVG Version: 6.00 Build 0)  -->
<svg version="1.1" id="Camada_2_00000135650868895809442340000006160211837557063828_"
	 xmlns="http://www.w3.org/2000/svg" xmlns:xlink="http://www.w3.org/1999/xlink" x="0px" y="0px" viewBox="0 0 373.5 143.1"
	 style="enable-background:new 0 0 373.5 143.1;" xml:space="preserve">
<style type="text/css">
	.st0{fill:#FFFFFF;}
</style>
<path class="logo-line" d="M164.7,103.4h-56.6V0h17v96.1h39.5L164.7,103.4L164.7,103.4z M264.7,103.4h-21.4l-39.7-50.8v50.8h-17V0h17v45
	l49-45h9.4l-45.8,42.6L264.7,103.4L264.7,103.4z M78.7,138.3c0,1.7-0.5,2.9-1.4,3.7c-0.9,0.8-2.3,1.1-4.3,1.1c-0.5,0-0.9,0-1.4-0.1
	c-0.5,0-0.9-0.1-1.3-0.1s-0.8-0.1-1.1-0.2c-0.3-0.1-0.6-0.1-0.7-0.2l0.1-1c0.2,0.1,0.5,0.1,0.8,0.2s0.7,0.1,1,0.2s0.8,0.1,1.2,0.1
	c0.4,0,0.8,0.1,1.2,0.1c1.3,0,2.3-0.2,2.9-0.6c0.6-0.4,0.9-1.2,0.9-2.3c0-0.9-0.3-1.6-0.9-2.1s-1.6-0.9-2.8-1.1
	c-0.8-0.1-1.5-0.3-2.1-0.5c-0.6-0.2-1.1-0.5-1.4-0.9c-0.4-0.4-0.7-0.8-0.9-1.3c-0.2-0.5-0.3-1.2-0.3-1.9c0-1.5,0.5-2.7,1.4-3.4
	c1-0.8,2.3-1.1,4-1.1c0.4,0,0.9,0,1.4,0.1c0.5,0,0.9,0.1,1.3,0.2c0.4,0.1,0.8,0.1,1.1,0.2c0.3,0.1,0.5,0.1,0.7,0.2l-0.1,1
	c-0.2-0.1-0.4-0.1-0.7-0.2c-0.3-0.1-0.6-0.1-1-0.2c-0.4-0.1-0.7-0.1-1.1-0.2c-0.4,0-0.8-0.1-1.2-0.1c-1.3,0-2.3,0.2-2.9,0.7
	c-0.6,0.5-0.9,1.2-0.9,2.2c0,0.9,0.3,1.5,0.9,1.9s1.6,0.8,2.8,1c0.8,0.1,1.5,0.3,2.1,0.5c0.6,0.2,1.1,0.5,1.5,0.9
	c0.4,0.4,0.7,0.8,0.9,1.4C78.5,136.8,78.6,137.5,78.7,138.3L78.7,138.3z M110.5,142.4c-0.6,0.2-1.2,0.4-1.9,0.5s-1.5,0.2-2.4,0.2
	c-1.2,0-2.3-0.2-3.1-0.5s-1.4-0.9-1.9-1.6c-0.5-0.7-0.8-1.6-1-2.6c-0.2-1-0.3-2.3-0.3-3.6c0-2.7,0.5-4.7,1.6-6c1.1-1.3,2.7-2,5.1-2
	c0.9,0,1.7,0.1,2.4,0.2s1.2,0.3,1.4,0.4l-0.1,1c-0.3-0.1-0.8-0.2-1.4-0.4c-0.6-0.1-1.2-0.2-1.9-0.2c-1,0-1.7,0.2-2.3,0.6
	s-1,0.9-1.3,1.6s-0.5,1.4-0.6,2.2c-0.1,0.8-0.1,1.7-0.1,2.6c0,1,0,1.9,0.1,2.8s0.3,1.7,0.6,2.3s0.7,1.2,1.3,1.6s1.3,0.6,2.3,0.6
	c0.7,0,1.3-0.1,2-0.2c0.6-0.1,1.1-0.3,1.5-0.4L110.5,142.4L110.5,142.4z M145.3,134.7c0,1.4-0.1,2.6-0.3,3.7s-0.6,1.9-1.1,2.6
	c-0.5,0.7-1.2,1.2-2.1,1.6c-0.9,0.4-2,0.5-3.2,0.5s-2.4-0.2-3.2-0.5s-1.5-0.9-2.1-1.6c-0.5-0.7-0.9-1.6-1.1-2.6
	c-0.2-1-0.3-2.3-0.3-3.6s0.1-2.5,0.4-3.5c0.2-1,0.6-1.9,1.2-2.5s1.2-1.2,2.1-1.5c0.9-0.3,1.9-0.5,3.2-0.5s2.3,0.2,3.2,0.5
	c0.9,0.3,1.5,0.8,2.1,1.5c0.5,0.7,0.9,1.5,1.1,2.5C145.1,132.2,145.3,133.4,145.3,134.7L145.3,134.7z M142.5,134.7
	c0-0.9,0-1.8-0.1-2.6s-0.2-1.6-0.5-2.2c-0.3-0.6-0.7-1.2-1.2-1.6s-1.3-0.6-2.2-0.6s-1.6,0.2-2.2,0.6c-0.5,0.4-0.9,0.9-1.2,1.6
	c-0.3,0.6-0.4,1.4-0.5,2.2c-0.1,0.8-0.1,1.7-0.1,2.6c0,0.9,0,1.9,0.1,2.7s0.2,1.7,0.5,2.4c0.3,0.7,0.7,1.2,1.2,1.6
	c0.5,0.4,1.3,0.6,2.2,0.6s1.7-0.2,2.2-0.6c0.5-0.4,0.9-1,1.2-1.6c0.3-0.7,0.4-1.5,0.5-2.4C142.5,136.5,142.5,135.6,142.5,134.7
	L142.5,134.7z M178.3,137c0,0.9-0.1,1.8-0.3,2.5c-0.2,0.7-0.5,1.4-0.9,1.9c-0.4,0.5-0.9,0.9-1.6,1.2s-1.6,0.4-2.6,0.4
	c-1.1,0-2-0.1-2.8-0.4s-1.3-0.7-1.8-1.2c-0.4-0.5-0.8-1.1-0.9-1.9c-0.2-0.8-0.3-1.6-0.3-2.5v-10.2h2.6V137c0,1.7,0.3,3,0.8,3.8
	s1.5,1.2,2.8,1.2s2.3-0.4,2.8-1.2s0.8-2.1,0.8-3.8v-10.2h1.1L178.3,137L178.3,137z M211.1,128h-4.4v14.8h-2.6V128h-4.4v-1.1h11.4
	L211.1,128L211.1,128z M235.3,142.8h-2.6v-15.9h2.6V142.8z M269.4,142.8h-1.1l-9.1-12.6v12.6h-1.1v-15.9h1.9l8.2,11.5v-11.6h1.1
	V142.8L269.4,142.8z M303.4,142.1c-0.2,0.1-0.5,0.2-0.9,0.4c-0.4,0.1-0.8,0.2-1.3,0.3c-0.5,0.1-1,0.2-1.6,0.2s-1.1,0.1-1.7,0.1
	c-1.3,0-2.3-0.2-3.2-0.5s-1.5-0.9-2-1.6s-0.8-1.6-1-2.6c-0.2-1-0.3-2.3-0.3-3.6c0-2.7,0.6-4.7,1.7-6c1.1-1.4,2.9-2,5.4-2
	c1.1,0,2,0.1,2.7,0.2s1.2,0.3,1.4,0.4l-0.1,1c-0.1-0.1-0.2-0.1-0.5-0.2s-0.5-0.1-0.8-0.2c-0.3-0.1-0.7-0.1-1.1-0.2s-0.9-0.1-1.4-0.1
	c-1,0-1.8,0.2-2.4,0.6c-0.6,0.4-1.1,0.9-1.4,1.6c-0.3,0.6-0.5,1.4-0.6,2.2c-0.1,0.8-0.1,1.7-0.1,2.6c0,0.9,0,1.9,0.1,2.8
	c0.1,0.9,0.2,1.7,0.5,2.4c0.3,0.7,0.7,1.2,1.2,1.6c0.5,0.4,1.2,0.6,2.1,0.6c0.7,0,1.2-0.1,1.8-0.1c0.5-0.1,0.9-0.2,1.1-0.3v-6.2
	h-2.6v-1h5L303.4,142.1L303.4,142.1z M72.4,103.4h18.4L52.5,0H38.3L0,103.4h7.6l32.6-89.6L72.4,103.4z M355,103.4h18.4L335.1,0H321
	l-38.3,103.4h7.6l32.5-89.6L355,103.4z"/>
</svg>
